<svg
    xmlns="http://www.w3.org/2000/svg"
    viewBox="0 0 11410 3170"
    id="vector">
    <path
        id="path"
        d="M 2 3140 C 17 3095 1547 42 1555 41 C 1564 41 3110 3125 3110 3143 C 3110 3147 2410 3150 1554 3150 C 528 3150 -1 3147 2 3140 Z"
        fill="#ffffff"
        stroke="#00000000"/>
    <path
        id="path_1"
        d="M 3410 1595 L 3410 40 L 4019 40 C 4520 40 4642 43 4707 55 C 5278 163 5669 704 5589 1276 C 5533 1682 5246 2031 4859 2163 C 4732 2207 4628 2220 4404 2220 L 4200 2220 L 4200 2685 L 4200 3150 L 3805 3150 L 3410 3150 L 3410 1595 Z"
        fill="#ffffff"
        stroke="#00000000"/>
    <path
        id="path_2"
        d="M 7462 1858 L 7465 1355 L 7509 1356 C 7544 1357 7558 1363 7576 1384 L 7599 1410 L 7636 1385 C 7705 1338 7795 1328 7887 1355 C 7947 1373 8007 1427 8038 1491 C 8083 1585 8088 1768 8048 1876 C 8018 1960 7979 2004 7906 2040 C 7847 2070 7835 2072 7762 2069 C 7697 2066 7677 2060 7642 2037 L 7600 2010 L 7600 2185 L 7600 2360 L 7530 2360 L 7460 2360 L 7462 1858 Z M 7846 1930 C 7864 1918 7889 1889 7902 1862 C 7922 1821 7925 1800 7925 1705 C 7925 1607 7922 1589 7900 1546 C 7883 1513 7863 1490 7840 1478 C 7798 1456 7713 1454 7666 1474 C 7604 1500 7600 1515 7600 1705 C 7600 1870 7601 1877 7623 1897 C 7684 1953 7784 1968 7846 1930 Z"
        fill="#ffffff"
        stroke="#00000000"/>
    <path
        id="path_3"
        d="M 6872 2052 C 6797 2025 6750 1983 6712 1908 C 6634 1757 6658 1533 6763 1428 C 6824 1366 6882 1345 6985 1345 C 7058 1345 7083 1349 7115 1367 C 7169 1396 7215 1445 7239 1500 C 7261 1550 7276 1664 7266 1704 L 7260 1730 L 7033 1730 L 6807 1730 L 6814 1776 C 6829 1887 6898 1950 7006 1950 C 7080 1950 7123 1937 7172 1899 L 7209 1870 L 7229 1904 C 7267 1966 7249 2002 7160 2043 C 7095 2073 6945 2077 6872 2052 Z M 7130 1619 C 7130 1582 7104 1518 7079 1494 C 7055 1471 7039 1465 6987 1462 C 6935 1459 6920 1462 6890 1482 C 6855 1505 6810 1578 6810 1612 C 6810 1629 6823 1630 6970 1630 C 7076 1630 7130 1626 7130 1619 Z"
        fill="#ffffff"
        stroke="#00000000"/>
    <path
        id="path_4"
        d="M 8445 2050 C 8227 1966 8179 1593 8363 1423 C 8420 1370 8467 1350 8551 1343 C 8773 1324 8912 1480 8897 1730 C 8890 1849 8861 1922 8796 1986 C 8762 2019 8726 2043 8695 2053 C 8628 2076 8509 2074 8445 2050 Z M 8660 1932 C 8730 1898 8768 1768 8749 1633 C 8732 1514 8680 1460 8582 1460 C 8504 1460 8457 1489 8423 1558 C 8400 1606 8396 1625 8397 1707 C 8397 1790 8400 1807 8426 1857 C 8446 1895 8466 1919 8490 1931 C 8534 1955 8614 1956 8660 1932 Z"
        fill="#ffffff"
        stroke="#00000000"/>
    <path
        id="path_5"
        d="M 9755 2056 C 9718 2039 9675 1994 9661 1957 C 9654 1939 9650 1790 9650 1539 L 9650 1150 L 9690 1150 C 9720 1150 9737 1157 9755 1175 C 9777 1197 9780 1207 9780 1280 L 9780 1360 L 9890 1360 L 10000 1360 L 10000 1415 L 10000 1470 L 9890 1470 L 9780 1470 L 9780 1658 C 9780 1858 9788 1916 9817 1938 C 9845 1959 9921 1948 9962 1917 L 9996 1890 L 10018 1929 C 10046 1978 10046 1991 10017 2018 C 9966 2066 9823 2086 9755 2056 Z"
        fill="#ffffff"
        stroke="#00000000"/>
    <path
        id="path_6"
        d="M 10346 2045 C 10207 1988 10139 1853 10153 1660 C 10165 1476 10276 1356 10446 1342 C 10631 1328 10750 1448 10750 1650 L 10750 1730 L 10520 1730 L 10289 1730 L 10296 1768 C 10319 1895 10380 1950 10500 1950 C 10568 1950 10622 1931 10661 1894 L 10688 1869 L 10707 1897 C 10743 1948 10744 1967 10713 1998 C 10641 2070 10462 2093 10346 2045 Z M 10609 1583 C 10592 1491 10544 1455 10450 1462 C 10364 1468 10318 1510 10296 1603 L 10290 1630 L 10454 1630 L 10617 1630 L 10609 1583 Z"
        fill="#ffffff"
        stroke="#00000000"/>
    <path
        id="path_7"
        d="M 6445 2050 C 6414 2038 6392 2008 6285 1840 C 6231 1755 6180 1677 6172 1668 C 6161 1655 6142 1650 6103 1650 L 6050 1650 L 6050 1850 L 6050 2050 L 5980 2050 L 5910 2050 L 5910 1561 L 5910 1072 L 5997 1065 C 6045 1061 6132 1060 6190 1063 C 6376 1073 6471 1127 6505 1245 C 6550 1399 6487 1554 6354 1614 L 6312 1632 L 6443 1837 C 6544 1998 6570 2044 6559 2051 C 6542 2062 6472 2062 6445 2050 Z M 6215 1530 C 6321 1513 6370 1456 6370 1351 C 6370 1225 6324 1188 6158 1182 L 6050 1178 L 6050 1359 L 6050 1540 L 6103 1540 C 6131 1540 6182 1535 6215 1530 Z"
        fill="#ffffff"
        stroke="#00000000"/>
    <path
        id="path_8"
        d="M 9110 1700 C 9110 1355 9110 1350 9130 1350 C 9161 1350 9220 1377 9226 1394 C 9231 1407 9240 1404 9276 1378 C 9329 1340 9398 1330 9452 1353 C 9502 1374 9510 1407 9481 1467 C 9460 1510 9458 1511 9437 1497 C 9398 1472 9356 1468 9311 1486 C 9242 1513 9240 1524 9240 1805 L 9240 2050 L 9175 2050 L 9110 2050 L 9110 1700 Z"
        fill="#ffffff"
        stroke="#00000000"/>
    <path
        id="path_9"
        d="M 10940 1705 C 10940 1319 10936 1337 11011 1359 C 11033 1366 11056 1379 11062 1389 C 11072 1406 11076 1406 11116 1377 C 11168 1340 11238 1331 11293 1353 C 11327 1368 11330 1372 11330 1410 C 11330 1449 11307 1510 11293 1510 C 11289 1510 11278 1502 11268 1493 C 11224 1454 11110 1482 11089 1537 C 11084 1551 11080 1671 11080 1806 L 11080 2050 L 11010 2050 L 10940 2050 L 10940 1705 Z"
        fill="#ffffff"
        stroke="#00000000"/>
</svg>
